<mxfile host="app.diagrams.net" modified="2024-05-29T13:30:14.865Z" agent="Mozilla/5.0 (Windows NT 10.0; Win64; x64) AppleWebKit/537.36 (KHTML, like Gecko) Chrome/122.0.0.0 YaBrowser/24.4.0.0 Safari/537.36" version="23.1.4" etag="aUx5PPsYViN4as46HC2O" type="github">
  <diagram name="Страница — 1" id="JRPZS7zowXLZXo26IhCF">
    <mxGraphModel>
      <root>
        <mxCell id="0" />
        <mxCell id="1" parent="0" />
      </root>
    </mxGraphModel>
  </diagram>
</mxfile>
